<svg width="195" height="16" xmlns="http://www.w3.org/2000/svg"><path d="M2.794 16l.924-2.772h6.556L11.198 16h2.354L8.184.6H5.808L.44 16h2.354zm6.776-4.862H4.422l2.574-7.744 2.574 7.744zM25.058 16v-2.09h-6.886V.6h-2.31V16h9.196zm12.474 0v-2.09h-7.414V9.268h6.864v-2.09h-6.864V2.69h7.414V.6h-9.724V16h9.724zm4.686 0l3.674-5.764L49.566 16h2.706l-5.038-7.854L52.052.6h-2.64l-3.52 5.478L42.372.6h-2.64l4.818 7.546L39.512 16h2.706zm13.288 0l.924-2.772h6.556L63.91 16h2.354L60.896.6H58.52L53.152 16h2.354zm6.776-4.862h-5.148l2.574-7.744 2.574 7.744zM70.774 16V4.956L78.012 16h1.87V.6h-2.2l-.022 11.088L70.444.6h-1.87V16h2.2zm19.228 0c3.828 0 4.906-1.914 4.906-4.818V5.418C94.908 2.514 93.83.6 90.002.6h-6.38V16h6.38zm-.154-2.134h-3.916V2.734h3.916c2.222 0 2.75.792 2.75 2.772v5.61c0 1.936-.528 2.75-2.75 2.75zM108.042 16v-2.09h-7.414V9.268h6.864v-2.09h-6.864V2.69h7.414V.6h-9.724V16h9.724zm5.72 0V9.268h2.376l3.52 6.732h2.618l-3.74-6.842c2.42-.418 3.366-1.98 3.366-4.026v-.44c0-2.42-1.298-4.092-4.73-4.092h-5.72V16h2.31zm3.586-8.822h-3.586V2.69h3.542c1.54 0 2.288.77 2.288 1.958v.506c0 1.188-.726 2.024-2.244 2.024zM137.368 16V2.69h4.488V.6h-11.308v2.09h4.51V16h2.31zm9.548 0V9.268h2.376l3.52 6.732h2.618l-3.74-6.842c2.42-.418 3.366-1.98 3.366-4.026v-.44c0-2.42-1.298-4.092-4.73-4.092h-5.72V16h2.31zm3.586-8.822h-3.586V2.69h3.542c1.54 0 2.288.77 2.288 1.958v.506c0 1.188-.726 2.024-2.244 2.024zM168.124 16v-2.09h-7.414V9.268h6.864v-2.09h-6.864V2.69h7.414V.6H158.4V16h9.724zm5.72 0V9.422h6.864v-2.09h-6.864V2.69h7.414V.6h-9.724V16h2.31zm20.658 0v-2.09h-7.04L194.7.6h-10.736v2.09h6.974L183.568 16h10.934z" fill="#1F4293" fill-rule="nonzero"/></svg>