<?xml version="1.0" standalone="no"?>
<!DOCTYPE svg PUBLIC "-//W3C//DTD SVG 20010904//EN"
 "http://www.w3.org/TR/2001/REC-SVG-20010904/DTD/svg10.dtd">
<svg version="1.0" xmlns="http://www.w3.org/2000/svg"
 width="700.000000pt" height="700.000000pt" viewBox="0 0 700.000000 700.000000"
 preserveAspectRatio="xMidYMid meet">
<metadata>
Created by potrace 1.14, written by Peter Selinger 2001-2017
</metadata>
<g transform="translate(0.000000,700.000000) scale(0.100000,-0.100000)"
fill="#000000" stroke="none">
<path d="M3241 5448 c-32 -86 -1161 -3332 -1161 -3339 0 -5 109 -9 259 -9
l259 0 99 298 100 297 715 3 716 2 99 -297 100 -298 262 -3 c241 -2 263 -1
257 14 -4 9 -268 767 -588 1685 l-582 1669 -263 0 -263 0 -9 -22z m275 -2276
c-302 -1 -551 0 -554 2 -2 3 121 379 273 837 l278 833 276 -835 277 -834 -550
-3z"/>
</g>
</svg>
